<svg xmlns="http://www.w3.org/2000/svg" viewBox="-5 -5 10 10" transform="rotate(15)">
    <defs>
        <mask id="hole1" maskContentUnits="userSpaceOnUse">
            <rect x="-5" y="-5" width="10" height="10" fill="white" />
            <circle cx="0" cy="0" r="1" fill="black" />
        </mask>
    </defs>
    <path
        fill="#516fa3"
        d="M-2.1904683156918745 4.39427973634474  L-2.2180030537512794 4.2686410034635145 L-2.2393152521362416 4.147329764083151 L-2.254482692592693 4.033025952904345 L-2.264368045393681 3.9234102596848066 L-2.2692753664551155 3.8215868831939437 L-2.269883478286936 3.725547640173187 L-2.266680284568161 3.635794576437178 L-2.2602102575203036 3.5526317479018283 L-2.2402203488161603 3.409958812661819 L-2.213484641419497 3.2918790512714775 L-2.186027685106023 3.2048554197108485 L-2.1601405058467837 3.141618860269336 L-2.088906568710051 3.078856062371218 L-2.017368575657408 3.006893805249863 L-1.9554260216254664 2.934613350076974 L-1.9029516273936127 2.86269351936249 L-1.8598039716056096 2.791798993480727 L-1.8257992064983484 2.722566168534752 L-1.8007110579018497 2.6556314406276336 L-1.7842708252392627 2.5916312058624396 L-1.7761744525946765 2.531152362867554 L-1.776103741916558 2.4747676681357387 L-1.7836768555430662 2.4230428070919423 L-1.7984978136767358 2.3765151808898675 L-1.8201423522488562 2.3356939064119677 L-1.8520611523516168 2.297170728972925 L-2.01369869146305 2.155827154481546 L-2.085965004500315 2.0859650045003155 L-2.155827154481546 2.01369869146305 L-2.297170728972925 1.8520611523516173 L-2.335693906411968 1.8201423522488562 L-2.376515180889867 1.7984978136767362 L-2.4230428070919423 1.7836768555430662 L-2.4747676681357382 1.7761037419165584 L-2.5311523628675534 1.776174452594677 L-2.591631205862439 1.7842708252392632 L-2.655631440627633 1.8007110579018502 L-2.7225661685347515 1.825799206498349 L-2.791798993480727 1.8598039716056098 L-2.86269351936249 1.9029516273936131 L-2.9346133500769738 1.9554260216254669 L-3.0068938052498626 2.0173685756574082 L-3.0788560623712176 2.0889065687100516 L-3.1416188602693356 2.160140505846784 L-3.204855419710848 2.1860276851060236 L-3.291879051271477 2.2134846414194973 L-3.4099588126618188 2.2402203488161607 L-3.5526317479018283 2.2602102575203045 L-3.6357945764371777 2.2666802845681615 L-3.7255476401731866 2.2698834782869364 L-3.8215868831939437 2.2692753664551164 L-3.9234102596848057 2.264368045393682 L-4.033025952904345 2.2544826925926937 L-4.147329764083151 2.239315252136242 L-4.2686410034635145 2.21800305375128 L-4.39427973634474 2.1904683156918754 L-4.509151898873528 2.1603430746677645 A5 5 0 0 1 -4.716045122880641 1.6608586473066973 L-4.65612 1.5583300000000002 L-4.58675 1.4500200000000003 L-4.51604 1.3491700000000002 L-4.44594 1.2576200000000002 L-4.37542 1.1731200000000002 L-4.30689 1.0976500000000002 L-4.23941 1.0293100000000002 L-4.17368 0.9681100000000002 L-4.1103 0.9138800000000002 L-3.99528 0.8271300000000003 L-3.89288 0.7625400000000002 L-3.81193 0.7204200000000002 L-3.74891 0.6940100000000002 L-3.65416 0.7000000000000002 L-3.55269 0.6997000000000002 L-3.45778 0.6923900000000002 L-3.36982 0.6786400000000002 L-3.28918 0.6590200000000003 L-3.21618 0.6341100000000002 L-3.15111 0.6045200000000002 L-3.09423 0.5708900000000002 L-3.04574 0.5338500000000003 L-3.00582 0.4940300000000002 L-2.9746 0.45210000000000017 L-2.95218 0.4087200000000002 L-2.93862 0.36455000000000015 L-2.93395 0.3147400000000002 L-2.9483 0.10050000000000019 L-2.95 1.806354028742346e-16 L-2.9483 -0.10049999999999983 L-2.93395 -0.31473999999999985 L-2.93862 -0.3645499999999998 L-2.95218 -0.40871999999999986 L-2.9746 -0.45209999999999984 L-3.00582 -0.49402999999999986 L-3.04574 -0.5338499999999998 L-3.09423 -0.5708899999999998 L-3.15111 -0.6045199999999997 L-3.21618 -0.6341099999999997 L-3.28918 -0.6590199999999998 L-3.36982 -0.6786399999999998 L-3.45778 -0.6923899999999997 L-3.55269 -0.6996999999999998 L-3.65416 -0.6999999999999997 L-3.74891 -0.6940099999999998 L-3.81193 -0.7204199999999997 L-3.89288 -0.7625399999999998 L-3.99528 -0.8271299999999998 L-4.1103 -0.9138799999999998 L-4.17368 -0.9681099999999998 L-4.23941 -1.0293099999999997 L-4.30689 -1.0976499999999998 L-4.37542 -1.1731199999999997 L-4.44594 -1.2576199999999997 L-4.51604 -1.3491699999999998 L-4.58675 -1.4500199999999999 L-4.65612 -1.5583299999999998 L-4.716045122880641 -1.6608586473066969 A5 5 0 0 1 -4.509151898873528 -2.1603430746677637 L-4.39427973634474 -2.1904683156918745 L-4.2686410034635145 -2.2180030537512794 L-4.147329764083151 -2.2393152521362416 L-4.033025952904345 -2.254482692592693 L-3.9234102596848066 -2.264368045393681 L-3.8215868831939437 -2.2692753664551155 L-3.725547640173187 -2.269883478286936 L-3.635794576437178 -2.266680284568161 L-3.5526317479018283 -2.2602102575203036 L-3.409958812661819 -2.2402203488161603 L-3.2918790512714775 -2.213484641419497 L-3.2048554197108485 -2.186027685106023 L-3.141618860269336 -2.1601405058467837 L-3.078856062371218 -2.088906568710051 L-3.006893805249863 -2.017368575657408 L-2.934613350076974 -1.9554260216254664 L-2.86269351936249 -1.9029516273936127 L-2.791798993480727 -1.8598039716056096 L-2.722566168534752 -1.8257992064983484 L-2.6556314406276336 -1.8007110579018497 L-2.5916312058624396 -1.7842708252392627 L-2.531152362867554 -1.7761744525946765 L-2.4747676681357387 -1.776103741916558 L-2.4230428070919423 -1.7836768555430662 L-2.3765151808898675 -1.7984978136767358 L-2.3356939064119677 -1.8201423522488562 L-2.297170728972925 -1.8520611523516168 L-2.155827154481546 -2.01369869146305 L-2.0859650045003155 -2.085965004500315 L-2.01369869146305 -2.155827154481546 L-1.8520611523516173 -2.297170728972925 L-1.8201423522488562 -2.335693906411968 L-1.7984978136767362 -2.376515180889867 L-1.7836768555430662 -2.4230428070919423 L-1.7761037419165584 -2.4747676681357382 L-1.776174452594677 -2.5311523628675534 L-1.7842708252392632 -2.591631205862439 L-1.8007110579018502 -2.655631440627633 L-1.825799206498349 -2.7225661685347515 L-1.8598039716056098 -2.791798993480727 L-1.9029516273936131 -2.86269351936249 L-1.9554260216254669 -2.9346133500769738 L-2.0173685756574082 -3.0068938052498626 L-2.0889065687100516 -3.0788560623712176 L-2.160140505846784 -3.1416188602693356 L-2.1860276851060236 -3.204855419710848 L-2.2134846414194973 -3.291879051271477 L-2.2402203488161607 -3.4099588126618188 L-2.2602102575203045 -3.5526317479018283 L-2.2666802845681615 -3.6357945764371777 L-2.2698834782869364 -3.7255476401731866 L-2.2692753664551164 -3.8215868831939437 L-2.264368045393682 -3.9234102596848057 L-2.2544826925926937 -4.033025952904345 L-2.239315252136242 -4.147329764083151 L-2.21800305375128 -4.2686410034635145 L-2.1904683156918754 -4.39427973634474 L-2.1603430746677645 -4.509151898873528 A5 5 0 0 1 -1.6608586473066977 -4.716045122880641 L-1.5583300000000007 -4.65612 L-1.4500200000000008 -4.58675 L-1.3491700000000004 -4.51604 L-1.2576200000000004 -4.44594 L-1.1731200000000004 -4.37542 L-1.0976500000000005 -4.30689 L-1.0293100000000004 -4.23941 L-0.9681100000000006 -4.17368 L-0.9138800000000006 -4.1103 L-0.8271300000000005 -3.99528 L-0.7625400000000004 -3.89288 L-0.7204200000000004 -3.81193 L-0.6940100000000005 -3.74891 L-0.7000000000000004 -3.65416 L-0.6997000000000004 -3.55269 L-0.6923900000000004 -3.45778 L-0.6786400000000005 -3.36982 L-0.6590200000000005 -3.28918 L-0.6341100000000004 -3.21618 L-0.6045200000000003 -3.15111 L-0.5708900000000003 -3.09423 L-0.5338500000000004 -3.04574 L-0.4940300000000004 -3.00582 L-0.4521000000000004 -2.9746 L-0.4087200000000004 -2.95218 L-0.3645500000000003 -2.93862 L-0.31474000000000035 -2.93395 L-0.10050000000000037 -2.9483 L-3.612708057484692e-16 -2.95 L0.10049999999999965 -2.9483 L0.3147399999999997 -2.93395 L0.36454999999999965 -2.93862 L0.40871999999999964 -2.95218 L0.4520999999999996 -2.9746 L0.49402999999999964 -3.00582 L0.5338499999999997 -3.04574 L0.5708899999999997 -3.09423 L0.6045199999999996 -3.15111 L0.6341099999999995 -3.21618 L0.6590199999999996 -3.28918 L0.6786399999999996 -3.36982 L0.6923899999999995 -3.45778 L0.6996999999999995 -3.55269 L0.6999999999999995 -3.65416 L0.6940099999999996 -3.74891 L0.7204199999999995 -3.81193 L0.7625399999999996 -3.89288 L0.8271299999999996 -3.99528 L0.9138799999999995 -4.1103 L0.9681099999999995 -4.17368 L1.0293099999999995 -4.23941 L1.0976499999999996 -4.30689 L1.1731199999999995 -4.37542 L1.2576199999999995 -4.44594 L1.3491699999999995 -4.51604 L1.4500199999999994 -4.58675 L1.5583299999999993 -4.65612 L1.6608586473066964 -4.716045122880641 A5 5 0 0 1 2.1603430746677637 -4.509151898873529 L2.1904683156918745 -4.394279736344741 L2.218003053751279 -4.268641003463515 L2.239315252136241 -4.1473297640831515 L2.254482692592693 -4.033025952904346 L2.2643680453936805 -3.923410259684807 L2.2692753664551155 -3.8215868831939446 L2.269883478286936 -3.725547640173187 L2.2666802845681606 -3.6357945764371786 L2.2602102575203036 -3.552631747901829 L2.2402203488161603 -3.409958812661819 L2.213484641419497 -3.2918790512714775 L2.1860276851060227 -3.204855419710849 L2.1601405058467837 -3.1416188602693365 L2.088906568710051 -3.0788560623712184 L2.017368575657408 -3.0068938052498635 L1.9554260216254664 -2.9346133500769747 L1.9029516273936125 -2.862693519362491 L1.8598039716056096 -2.7917989934807275 L1.8257992064983484 -2.7225661685347524 L1.8007110579018497 -2.655631440627634 L1.7842708252392625 -2.5916312058624396 L1.7761744525946765 -2.5311523628675543 L1.776103741916558 -2.4747676681357387 L1.7836768555430662 -2.4230428070919428 L1.7984978136767358 -2.376515180889868 L1.820142352248856 -2.3356939064119686 L1.8520611523516168 -2.297170728972925 L2.01369869146305 -2.1558271544815466 L2.085965004500315 -2.085965004500316 L2.155827154481546 -2.0136986914630506 L2.297170728972925 -1.8520611523516173 L2.335693906411968 -1.8201423522488567 L2.3765151808898675 -1.7984978136767367 L2.4230428070919428 -1.7836768555430667 L2.4747676681357382 -1.7761037419165584 L2.5311523628675534 -1.7761744525946774 L2.591631205862439 -1.7842708252392632 L2.655631440627633 -1.8007110579018506 L2.722566168534752 -1.8257992064983495 L2.791798993480727 -1.8598039716056103 L2.86269351936249 -1.9029516273936136 L2.9346133500769738 -1.9554260216254673 L3.0068938052498626 -2.0173685756574087 L3.0788560623712176 -2.088906568710052 L3.1416188602693356 -2.1601405058467846 L3.2048554197108485 -2.186027685106024 L3.291879051271477 -2.213484641419498 L3.4099588126618188 -2.2402203488161616 L3.5526317479018283 -2.260210257520305 L3.635794576437178 -2.266680284568162 L3.7255476401731866 -2.2698834782869373 L3.8215868831939437 -2.2692753664551164 L3.923410259684806 -2.2643680453936823 L4.033025952904345 -2.254482692592694 L4.147329764083151 -2.239315252136243 L4.2686410034635145 -2.2180030537512803 L4.39427973634474 -2.1904683156918754 L4.509151898873528 -2.1603430746677654 A5 5 0 0 1 4.716045122880641 -1.660858647306698 L4.65612 -1.5583300000000009 L4.58675 -1.450020000000001 L4.51604 -1.3491700000000009 L4.44594 -1.2576200000000008 L4.37542 -1.1731200000000008 L4.30689 -1.097650000000001 L4.23941 -1.0293100000000008 L4.17368 -0.9681100000000008 L4.1103 -0.9138800000000008 L3.99528 -0.8271300000000008 L3.89288 -0.7625400000000007 L3.81193 -0.7204200000000006 L3.74891 -0.6940100000000007 L3.65416 -0.7000000000000006 L3.55269 -0.6997000000000007 L3.45778 -0.6923900000000006 L3.36982 -0.6786400000000007 L3.28918 -0.6590200000000006 L3.21618 -0.6341100000000005 L3.15111 -0.6045200000000005 L3.09423 -0.5708900000000006 L3.04574 -0.5338500000000006 L3.00582 -0.4940300000000006 L2.9746 -0.45210000000000056 L2.95218 -0.4087200000000006 L2.93862 -0.36455000000000054 L2.93395 -0.3147400000000006 L2.9483 -0.10050000000000055 L2.95 -5.419062086227038e-16 L2.9483 0.10049999999999946 L2.93395 0.31473999999999946 L2.93862 0.36454999999999943 L2.95218 0.4087199999999995 L2.9746 0.45209999999999945 L3.00582 0.49402999999999947 L3.04574 0.5338499999999995 L3.09423 0.5708899999999995 L3.15111 0.6045199999999994 L3.21618 0.6341099999999994 L3.28918 0.6590199999999995 L3.36982 0.6786399999999994 L3.45778 0.6923899999999993 L3.55269 0.6996999999999993 L3.65416 0.6999999999999993 L3.74891 0.6940099999999993 L3.81193 0.7204199999999993 L3.89288 0.7625399999999993 L3.99528 0.8271299999999993 L4.1103 0.9138799999999992 L4.17368 0.9681099999999992 L4.23941 1.029309999999999 L4.30689 1.0976499999999991 L4.37542 1.173119999999999 L4.44594 1.257619999999999 L4.51604 1.349169999999999 L4.58675 1.4500199999999992 L4.65612 1.558329999999999 L4.716045122880641 1.6608586473066962 A5 5 0 0 1 4.509151898873529 2.1603430746677628 L4.394279736344741 2.1904683156918736 L4.268641003463515 2.2180030537512785 L4.1473297640831515 2.239315252136241 L4.033025952904346 2.2544826925926924 L3.923410259684807 2.26436804539368 L3.821586883193944 2.269275366455115 L3.725547640173187 2.2698834782869355 L3.6357945764371786 2.26668028456816 L3.552631747901829 2.260210257520303 L3.409958812661819 2.24022034881616 L3.2918790512714775 2.2134846414194964 L3.204855419710849 2.1860276851060227 L3.1416188602693365 2.1601405058467833 L3.0788560623712184 2.0889065687100508 L3.006893805249863 2.017368575657408 L2.9346133500769747 1.955426021625466 L2.8626935193624905 1.902951627393612 L2.791798993480727 1.8598039716056092 L2.7225661685347524 1.8257992064983484 L2.655631440627634 1.8007110579018497 L2.591631205862439 1.784270825239262 L2.5311523628675543 1.776174452594676 L2.4747676681357387 1.7761037419165575 L2.4230428070919428 1.7836768555430658 L2.376515180889868 1.7984978136767353 L2.335693906411968 1.8201423522488556 L2.297170728972925 1.8520611523516164 L2.1558271544815466 2.0136986914630497 L2.085965004500316 2.0859650045003146 L2.0136986914630506 2.1558271544815457 L1.8520611523516173 2.2971707289729246 L1.8201423522488567 2.3356939064119677 L1.7984978136767367 2.376515180889867 L1.7836768555430669 2.4230428070919423 L1.7761037419165584 2.474767668135738 L1.7761744525946774 2.531152362867553 L1.7842708252392632 2.5916312058624387 L1.8007110579018508 2.655631440627633 L1.8257992064983495 2.722566168534752 L1.8598039716056103 2.7917989934807266 L1.9029516273936136 2.8626935193624896 L1.9554260216254675 2.9346133500769733 L2.017368575657409 3.0068938052498626 L2.088906568710052 3.078856062371217 L2.1601405058467846 3.141618860269335 L2.186027685106024 3.2048554197108476 L2.213484641419498 3.2918790512714766 L2.2402203488161616 3.4099588126618183 L2.260210257520305 3.552631747901828 L2.266680284568162 3.6357945764371777 L2.2698834782869373 3.725547640173186 L2.269275366455117 3.8215868831939432 L2.2643680453936823 3.9234102596848057 L2.254482692592694 4.033025952904344 L2.239315252136243 4.14732976408315 L2.2180030537512803 4.2686410034635145 L2.190468315691876 4.39427973634474 L2.1603430746677654 4.509151898873528 A5 5 0 0 1 1.6608586473066982 4.716045122880641 L1.558330000000001 4.65612 L1.4500200000000012 4.58675 L1.349170000000001 4.51604 L1.257620000000001 4.44594 L1.173120000000001 4.37542 L1.0976500000000011 4.30689 L1.029310000000001 4.23941 L0.968110000000001 4.17368 L0.913880000000001 4.1103 L0.827130000000001 3.99528 L0.762540000000001 3.89288 L0.7204200000000008 3.81193 L0.6940100000000009 3.74891 L0.7000000000000008 3.65416 L0.6997000000000009 3.55269 L0.6923900000000008 3.45778 L0.6786400000000008 3.36982 L0.6590200000000008 3.28918 L0.6341100000000007 3.21618 L0.6045200000000007 3.15111 L0.5708900000000008 3.09423 L0.5338500000000008 3.04574 L0.49403000000000075 3.00582 L0.4521000000000007 2.9746 L0.40872000000000075 2.95218 L0.3645500000000007 2.93862 L0.31474000000000074 2.93395 L0.10050000000000073 2.9483 L7.225416114969384e-16 2.95 L-0.10049999999999928 2.9483 L-0.3147399999999993 2.93395 L-0.36454999999999926 2.93862 L-0.4087199999999993 2.95218 L-0.4520999999999993 2.9746 L-0.4940299999999993 3.00582 L-0.5338499999999993 3.04574 L-0.5708899999999992 3.09423 L-0.6045199999999992 3.15111 L-0.6341099999999992 3.21618 L-0.6590199999999993 3.28918 L-0.6786399999999992 3.36982 L-0.6923899999999991 3.45778 L-0.6996999999999991 3.55269 L-0.6999999999999991 3.65416 L-0.6940099999999991 3.74891 L-0.7204199999999991 3.81193 L-0.762539999999999 3.89288 L-0.827129999999999 3.99528 L-0.913879999999999 4.1103 L-0.968109999999999 4.17368 L-1.0293099999999988 4.23941 L-1.097649999999999 4.30689 L-1.1731199999999988 4.37542 L-1.2576199999999988 4.44594 L-1.3491699999999989 4.51604 L-1.450019999999999 4.58675 L-1.5583299999999989 4.65612 L-1.660858647306696 4.716045122880641 A5 5 0 0 1 -2.1603430746677637 4.509151898873528 Z"
        mask="url(#hole1)" />
</svg>

